<svg width="123" height="116" viewBox="0 0 123 116" fill="none" xmlns="http://www.w3.org/2000/svg">
<g clip-path="url(#clip0)">
<path fill-rule="evenodd" clip-rule="evenodd" d="M63.21 28.21C69.79 28.72 72.86 27.31 74.39 17.08C68.36 18.68 62.04 18.97 63.21 28.21ZM31.26 90.66C38.39 88.6 41.08 85.9 38.66 74.52C32.93 78.59 26.37 81.39 31.26 90.66ZM26.75 78.61C33.88 76.55 36.57 73.85 34.15 62.47C28.42 66.54 21.87 69.33 26.75 78.61ZM22.32 66.8C28.66 64.97 31.05 62.57 28.9 52.45C23.8 56.07 17.97 58.55 22.32 66.8ZM18.37 56.3C24 54.68 26.12 52.54 24.21 43.56C19.69 46.78 14.52 48.98 18.37 56.3ZM14.88 46.98C20.12 45.47 22.1 43.48 20.32 35.11C16.11 38.11 11.29 40.16 14.88 46.98ZM10.31 40.07C4.27 38.59 1.88 34.28 4.93 25.78C8.2 27.29 15.81 32.34 10.31 40.07ZM28.19 91.81C21.46 94.94 17.66 94.66 12.01 84.48C19.01 83.8 25.79 81.6 28.19 91.81ZM23.68 79.76C16.95 82.89 13.15 82.61 7.5 72.43C14.5 71.75 21.28 69.55 23.68 79.76ZM19.28 67.93C13.29 70.71 9.92 70.47 4.9 61.42C11.12 60.81 17.15 58.86 19.28 67.93ZM15.37 57.43C10.06 59.9 7.06 59.68 2.6 51.65C8.12 51.1 13.48 49.37 15.37 57.43ZM11.89 48.1C6.94 50.4 4.15 50.19 0 42.71C5.14 42.21 10.13 40.6 11.89 48.1ZM91.62 90.97C84.49 88.91 81.8 86.21 84.22 74.83C89.95 78.9 96.51 81.69 91.62 90.97ZM96.13 78.92C89 76.86 86.31 74.16 88.73 62.78C94.46 66.85 101.01 69.64 96.13 78.92ZM100.56 67.11C94.22 65.28 91.83 62.88 93.98 52.76C99.08 56.38 104.91 58.86 100.56 67.11ZM104.51 56.61C98.88 54.99 96.76 52.85 98.67 43.87C103.19 47.08 108.36 49.29 104.51 56.61ZM108 47.29C102.76 45.78 100.78 43.79 102.56 35.42C106.77 38.42 111.59 40.47 108 47.29ZM112.57 40.38C118.61 38.9 121 34.59 117.95 26.09C114.68 27.59 107.07 32.65 112.57 40.38ZM94.69 92.11C101.42 95.24 105.22 94.96 110.87 84.78C103.87 84.1 97.09 81.91 94.69 92.11ZM99.2 80.06C105.93 83.19 109.73 82.91 115.38 72.73C108.38 72.05 101.6 69.86 99.2 80.06ZM103.6 68.24C109.59 71.02 112.96 70.78 117.98 61.73C111.76 61.12 105.73 59.17 103.6 68.24ZM107.51 57.73C112.82 60.2 115.82 59.98 120.28 51.95C114.76 51.41 109.4 49.68 107.51 57.73ZM110.99 48.4C115.94 50.7 118.73 50.5 122.88 43.02C117.74 42.52 112.75 40.9 110.99 48.4ZM59.42 89.48C59.42 88.42 60.28 87.57 61.33 87.57C62.39 87.57 63.24 88.43 63.24 89.48V112.86C63.24 113.92 62.38 114.77 61.33 114.77C60.27 114.77 59.42 113.91 59.42 112.86V89.48ZM30.3 97.29C29.9 96.31 30.38 95.2 31.35 94.8C32.33 94.4 33.44 94.88 33.84 95.85C34.61 97.75 35.48 99.59 36.35 101.43C38.09 105.12 39.85 108.84 40.87 112.98C41.12 114 40.49 115.04 39.46 115.28C38.44 115.53 37.4 114.9 37.16 113.87C36.24 110.13 34.56 106.58 32.9 103.05C31.99 101.14 31.09 99.22 30.3 97.29ZM88.73 95.86C89.13 94.88 90.24 94.41 91.22 94.81C92.2 95.21 92.67 96.32 92.27 97.3C91.49 99.23 90.58 101.15 89.67 103.08C87.95 106.72 86.22 110.39 85.32 114.28C85.08 115.31 84.06 115.95 83.03 115.72C82 115.48 81.36 114.46 81.59 113.43C82.58 109.13 84.4 105.27 86.21 101.45C87.09 99.59 87.96 97.75 88.73 95.86ZM59.31 84.6C50.36 85.29 46.18 83.37 44.1 69.46C52.31 71.64 60.91 72.03 59.31 84.6ZM59.31 69.04C50.36 69.73 46.18 67.81 44.1 53.9C52.31 56.09 60.91 56.48 59.31 69.04ZM59.33 53.8C51.37 54.42 47.65 52.71 45.8 40.34C53.1 42.28 60.75 42.62 59.33 53.8ZM59.35 40.24C52.29 40.79 48.99 39.27 47.34 28.29C53.82 30.02 60.61 30.32 59.35 40.24ZM59.36 28.21C52.78 28.72 49.71 27.31 48.18 17.08C54.21 18.68 60.54 18.97 59.36 28.21ZM61.6 18.45C67.81 14.22 68.69 8.32 61.64 0C58.58 3.08 52.1 12.03 61.6 18.45ZM63.27 84.6C72.22 85.29 76.4 83.37 78.48 69.46C70.27 71.64 61.66 72.03 63.27 84.6ZM63.27 69.04C72.22 69.73 76.4 67.81 78.48 53.9C70.27 56.09 61.66 56.48 63.27 69.04ZM63.24 53.8C71.2 54.42 74.92 52.71 76.77 40.34C69.47 42.28 61.82 42.62 63.24 53.8ZM63.22 40.24C70.28 40.79 73.58 39.27 75.23 28.29C68.75 30.02 61.96 30.32 63.22 40.24Z" fill="white"/>
</g>
<defs>
<clipPath id="clip0">
<rect width="122.88" height="115.76" fill="white"/>
</clipPath>
</defs>
</svg>
