<svg width="123" height="97" viewBox="0 0 123 97" fill="none" xmlns="http://www.w3.org/2000/svg">
<path fill-rule="evenodd" clip-rule="evenodd" d="M89.08 66.94H84.36V35.79C84.3603 35.1034 84.2243 34.4236 83.96 33.79C83.6932 33.1522 83.3062 32.5716 82.82 32.08V32.08C82.3361 31.5874 81.7587 31.1965 81.1215 30.9303C80.4844 30.6642 79.8005 30.528 79.11 30.53H66.16V27.68H83.26V0H36.9V27.68H53.9V30.52H41.06C40.3695 30.518 39.6856 30.6542 39.0485 30.9203C38.4113 31.1865 37.8339 31.5774 37.35 32.07C36.8661 32.5635 36.4794 33.1435 36.21 33.78C35.9457 34.4136 35.8097 35.0934 35.81 35.78V36.78H29.87C29.583 36.7811 29.2991 36.84 29.0352 36.9531C28.7714 37.0662 28.5331 37.2313 28.3343 37.4384C28.1356 37.6455 27.9806 37.8905 27.8785 38.1588C27.7764 38.4271 27.7293 38.7132 27.74 39V45.74C27.7426 46.3032 27.9682 46.8424 28.3674 47.2397C28.7666 47.637 29.3068 47.86 29.87 47.86H30.87V47.99C31.34 54.06 28.87 57.99 25.47 59.84C23.9284 60.6572 22.2146 61.0959 20.47 61.12C18.6737 61.1505 16.8945 60.7673 15.27 60C11.38 58.2 8.34 54.14 8.43 47.84V26.25H10.87C11.6003 26.25 12.3008 25.9606 12.8181 25.4452C13.3354 24.9297 13.6274 24.2303 13.63 23.5V13.4C13.6274 12.6697 13.3354 11.9703 12.8181 11.4548C12.3008 10.9394 11.6003 10.65 10.87 10.65H2.75C2.02065 10.65 1.32118 10.9397 0.805456 11.4555C0.289731 11.9712 0 12.6707 0 13.4L0 23.5C0.00263487 24.2285 0.293212 24.9265 0.808367 25.4416C1.32352 25.9568 2.02147 26.2474 2.75 26.25H5V47.81C4.89 55.66 8.82 60.81 13.82 63.09C15.9092 64.0531 18.19 64.5284 20.49 64.48C22.7761 64.4509 25.0221 63.8749 27.04 62.8C31.54 60.36 34.78 55.38 34.24 47.8H35.8V86.67C35.7987 87.3616 35.9338 88.0467 36.1975 88.686C36.4613 89.3253 36.8485 89.9064 37.3371 90.3959C37.8256 90.8853 38.4059 91.2737 39.0448 91.5387C39.6836 91.8036 40.3684 91.94 41.06 91.94H44.14V95.49C44.14 95.7764 44.2538 96.0511 44.4563 96.2537C44.6589 96.4562 44.9336 96.57 45.22 96.57H48.65C48.7927 96.5713 48.9342 96.5444 49.0664 96.4907C49.1986 96.437 49.3188 96.3577 49.4201 96.2572C49.5215 96.1568 49.6019 96.0373 49.6568 95.9056C49.7117 95.7739 49.74 95.6327 49.74 95.49V91.94H70.42V95.49C70.42 95.7764 70.5338 96.0511 70.7363 96.2537C70.9389 96.4562 71.2136 96.57 71.5 96.57H74.94C75.223 96.5648 75.4925 96.4487 75.6908 96.2467C75.889 96.0447 76 95.773 76 95.49V91.94H79.1C80.496 91.9374 81.8338 91.381 82.82 90.3929C83.8061 89.4049 84.36 88.066 84.36 86.67V86C84.36 85.68 84.36 85.34 84.36 85V77.92H86.5C86.8769 80.2726 87.8169 82.4991 89.24 84.41C90.9492 86.6356 93.3135 88.269 96 89.08C98.5984 89.8732 101.364 89.9458 104 89.29C107.292 88.4918 110.208 86.585 112.26 83.89C115.91 79.09 115.75 72.67 115.6 66.89C115.6 65.89 115.6 64.96 115.6 63.69V41.3H115.71C116.108 41.3 116.489 41.142 116.771 40.8607C117.052 40.5794 117.21 40.1978 117.21 39.8V37.47H119.61C120.492 37.4674 121.338 37.1157 121.962 36.4918C122.586 35.8678 122.937 35.0224 122.94 34.14V16C122.937 15.1176 122.586 14.2722 121.962 13.6482C121.338 13.0243 120.492 12.6726 119.61 12.67H107.06C106.178 12.6726 105.332 13.0243 104.708 13.6482C104.084 14.2722 103.733 15.1176 103.73 16V34.14C103.733 35.0224 104.084 35.8678 104.708 36.4918C105.332 37.1157 106.178 37.4674 107.06 37.47H109.46V39.8C109.46 40.1978 109.618 40.5794 109.899 40.8607C110.181 41.142 110.562 41.3 110.96 41.3H112.11V63.64C112.11 64.46 112.11 65.64 112.18 66.92C112.31 72.19 112.46 77.99 109.54 81.83C107.961 83.9082 105.715 85.3805 103.18 86C101.137 86.5134 98.9933 86.4581 96.98 85.84V85.84C94.99 85.2377 93.2405 84.0235 91.98 82.37C90.9725 81.0048 90.2885 79.4284 89.98 77.76C90.3502 77.5851 90.6622 77.3072 90.8786 76.9596C91.0949 76.612 91.2065 76.2094 91.2 75.8V69.06C91.1974 68.4985 90.9732 67.9609 90.5762 67.5638C90.1792 67.1668 89.6415 66.9426 89.08 66.94V66.94ZM49.45 47H53.45V50.1H49.45V47ZM66.74 65H70.74V68.07H66.74V65.07V65ZM58.1 65H62.1V68.07H58.1V65.07V65ZM49.45 65H53.45V68.07H49.45V65.07V65ZM66.74 56H70.74V59.07H66.74V56.05V56ZM58.1 56H62.1V59.07H58.1V56.05V56ZM49.45 56H53.45V59.07H49.45V56.05V56ZM66.74 47H70.74V50.1H66.74V47ZM58.1 47H62.1V50.1H58.1V47ZM81.71 66.94H81.64V72.3H74.54V40.75H45.62V72.3H38.44V35.79C38.4375 35.4465 38.5056 35.1061 38.64 34.79C38.774 34.4699 38.9674 34.1781 39.21 33.93C39.4526 33.687 39.7411 33.4947 40.0587 33.3642C40.3763 33.2338 40.7167 33.1677 41.06 33.17H79.06C79.4024 33.1689 79.7419 33.2334 80.06 33.36C80.3818 33.4908 80.6741 33.6847 80.9197 33.9303C81.1653 34.1759 81.3592 34.4682 81.49 34.79C81.6162 35.1083 81.6806 35.4476 81.68 35.79V66.94H81.71ZM81.64 74.58V77.92H81.71V86.67C81.7144 87.1106 81.6042 87.5449 81.39 87.93C80.9178 88.5518 80.2415 88.9874 79.48 89.16H40.24C39.8622 89.0257 39.5202 88.8068 39.24 88.52C38.9954 88.2774 38.8016 87.9884 38.67 87.67V87.6V74.6L81.64 74.58ZM39.93 12.93H46.19L48.37 17.32L53.24 4.41L55.87 13.25H59.18L61.09 16.6L63.44 12.77H80.23V3H39.93V12.9V12.93ZM80.23 15.06H64.71L61.02 21.06L57.86 15.51H54.17L52.99 11.51L48.65 23L44.78 15.18H39.93V24.62H80.23V15.06V15.06Z" fill="white"/>
</svg>
