<?xml version="1.0" standalone="no"?>
<!DOCTYPE svg PUBLIC "-//W3C//DTD SVG 20010904//EN"
 "http://www.w3.org/TR/2001/REC-SVG-20010904/DTD/svg10.dtd">
<svg version="1.0" xmlns="http://www.w3.org/2000/svg"
 width="222.000000pt" height="222.000000pt" viewBox="0 0 222.000000 222.000000"
 preserveAspectRatio="xMidYMid meet">

<g transform="translate(0.000000,222.000000) scale(0.100000,-0.100000)"
fill="#000000" stroke="none">
<path d="M1105 2170 c3 -5 8 -10 11 -10 2 0 4 5 4 10 0 6 -5 10 -11 10 -5 0
-7 -4 -4 -10z"/>
<path d="M2055 1640 c-3 -5 -2 -10 4 -10 5 0 13 5 16 10 3 6 2 10 -4 10 -5 0
-13 -4 -16 -10z"/>
<path d="M1020 1306 c0 -3 9 -10 20 -16 11 -6 20 -8 20 -6 0 3 -9 10 -20 16
-11 6 -20 8 -20 6z"/>
<path d="M1140 1236 c0 -3 9 -10 20 -16 11 -6 20 -8 20 -6 0 3 -9 10 -20 16
-11 6 -20 8 -20 6z"/>
<path d="M1224 1186 c11 -9 27 -16 35 -15 14 0 14 1 1 6 -8 3 -24 10 -35 15
-20 9 -20 9 -1 -6z"/>
<path d="M1360 1106 c0 -2 7 -7 16 -10 8 -3 12 -2 9 4 -6 10 -25 14 -25 6z"/>
<path d="M1400 1086 c0 -3 9 -10 20 -16 11 -6 20 -8 20 -6 0 3 -9 10 -20 16
-11 6 -20 8 -20 6z"/>
<path d="M1434 985 c-10 -8 -14 -15 -8 -15 6 0 17 7 24 15 16 19 9 19 -16 0z"/>
<path d="M921 324 c0 -11 3 -14 6 -6 3 7 2 16 -1 19 -3 4 -6 -2 -5 -13z"/>
<path d="M923 150 c0 -30 2 -43 4 -28 2 16 2 40 0 56 -2 15 -4 2 -4 -28z"/>
<path d="M1740 90 c0 -27 3 -32 11 -20 8 11 12 12 16 3 2 -7 9 -13 14 -13 6 0
6 7 0 18 -7 13 -6 23 1 30 9 9 9 12 1 12 -7 0 -15 -5 -19 -11 -4 -8 -9 -7 -15
2 -6 9 -9 2 -9 -21z"/>
<path d="M1811 94 c-6 -15 -9 -29 -7 -32 3 -3 8 3 12 12 6 15 7 15 20 -1 14
-19 17 -11 8 25 -8 29 -18 28 -33 -4z"/>
<path d="M1860 90 c0 -35 4 -37 31 -11 24 22 18 41 -12 41 -14 0 -19 -7 -19
-30z"/>
<path d="M1923 90 c11 -30 27 -41 27 -19 0 8 5 8 15 -1 12 -10 16 -8 25 15 13
35 13 35 -10 35 -11 0 -20 -6 -20 -12 0 -10 -3 -9 -9 1 -7 11 -9 11 -14 0 -4
-10 -6 -10 -6 -1 -1 6 -5 12 -10 12 -5 0 -4 -13 2 -30z m54 -2 c-3 -8 -6 -5
-6 6 -1 11 2 17 5 13 3 -3 4 -12 1 -19z"/>
<path d="M2010 90 c0 -16 5 -30 10 -30 6 0 10 14 10 30 0 17 -4 30 -10 30 -5
0 -10 -13 -10 -30z"/>
<path d="M2040 88 c0 -26 3 -30 11 -18 8 11 12 12 16 3 9 -25 23 -13 22 20 0
26 -2 29 -9 12 -7 -18 -8 -19 -15 -2 -12 28 -25 20 -25 -15z"/>
<path d="M2106 105 c-9 -25 4 -45 30 -45 15 0 24 6 24 15 0 8 -4 15 -10 15 -5
0 -10 -4 -10 -10 0 -5 -4 -10 -10 -10 -5 0 -10 9 -10 21 0 15 5 19 15 15 8 -3
15 -1 15 4 0 16 -37 11 -44 -5z"/>
</g>
</svg>
