<svg xmlns="http://www.w3.org/2000/svg" xmlns:xlink="http://www.w3.org/1999/xlink" width="500" zoomAndPan="magnify" viewBox="0 0 375 374.999991" height="500" preserveAspectRatio="xMidYMid meet" version="1.0"><defs><g/><clipPath id="c422cabdb8"><path d="M 181 89.457031 L 247.695312 89.457031 L 247.695312 222 L 181 222 Z M 181 89.457031 " clip-rule="nonzero"/></clipPath></defs><path fill="#ffffff" d="M 181.25 126.25 L 181.246094 184.347656 L 181.25 186.632812 C 184.976562 186.628906 188.714844 185.992188 192.308594 184.648438 C 204.511719 180.074219 212.710938 168.269531 212.707031 155.277344 C 212.707031 151.53125 212.027344 147.820312 210.6875 144.257812 C 207.738281 136.410156 201.886719 130.1875 194.238281 126.730469 C 190.082031 124.855469 185.675781 123.953125 181.246094 123.953125 Z M 181.25 126.25 " fill-opacity="1" fill-rule="nonzero"/><g clip-path="url(#c422cabdb8)"><path fill="#ffffff" d="M 196.183594 92.121094 L 191.121094 103.222656 C 190.285156 105.0625 187.953125 106.40625 185.929688 106.207031 L 181.246094 106.046875 L 181.246094 117.21875 C 181.25 117.929688 181.25 117.929688 181.25 117.929688 C 201.945312 117.929688 218.722656 134.65625 218.722656 155.292969 C 218.722656 175.921875 201.941406 192.644531 181.253906 192.640625 C 181.253906 192.640625 181.253906 192.640625 181.25 192.640625 L 181.25 204.539062 L 182.660156 204.585938 C 184.699219 204.519531 186.945312 206.003906 187.65625 207.902344 L 191.964844 219.3125 C 192.679688 221.203125 194.820312 222.179688 196.71875 221.464844 L 213.355469 215.230469 C 215.269531 214.511719 216.234375 212.378906 215.515625 210.480469 L 211.214844 199.066406 C 210.5 197.167969 211.199219 194.582031 212.777344 193.289062 L 217.207031 189.148438 C 218.589844 187.660156 221.246094 187.136719 223.09375 187.972656 L 234.242188 193.027344 C 236.085938 193.859375 238.285156 193.039062 239.125 191.195312 L 246.472656 175.039062 C 247.3125 173.195312 246.484375 171.011719 244.640625 170.164062 L 233.484375 165.128906 C 231.632812 164.292969 230.296875 161.957031 230.492188 159.945312 L 230.710938 153.878906 C 230.632812 151.867188 232.136719 149.621094 234.027344 148.90625 L 245.492188 144.621094 C 247.390625 143.90625 248.351562 141.769531 247.628906 139.882812 L 241.378906 123.289062 C 240.671875 121.386719 238.535156 120.425781 236.625 121.140625 L 225.175781 125.429688 C 223.273438 126.132812 220.667969 125.445312 219.386719 123.867188 L 215.226562 119.445312 C 213.734375 118.0625 213.207031 115.417969 214.050781 113.589844 L 219.109375 102.46875 C 219.945312 100.621094 219.113281 98.421875 217.273438 97.597656 L 201.070312 90.269531 C 199.222656 89.449219 197.011719 90.269531 196.183594 92.121094 Z M 196.183594 92.121094 " fill-opacity="1" fill-rule="nonzero"/></g><path fill="#ffffff" d="M 138.203125 130.460938 L 156.808594 130.460938 C 159.625 130.460938 161.90625 132.734375 161.90625 135.539062 C 161.90625 138.347656 159.625 140.621094 156.808594 140.621094 L 132.121094 140.621094 C 129.925781 140.621094 128.023438 142.136719 127.535156 144.269531 L 127.515625 144.363281 C 126.835938 147.34375 129.109375 150.179688 132.175781 150.179688 L 157.796875 150.179688 C 160.609375 150.179688 162.890625 152.453125 162.890625 155.257812 C 162.890625 158.0625 160.609375 160.339844 157.796875 160.339844 L 132.175781 160.339844 C 129.113281 160.332031 126.839844 163.171875 127.515625 166.148438 L 127.539062 166.242188 C 128.023438 168.378906 129.929688 169.898438 132.128906 169.898438 L 157.804688 169.894531 C 160.617188 169.894531 162.894531 172.167969 162.894531 174.972656 C 162.894531 177.777344 160.617188 180.054688 157.804688 180.054688 L 138.207031 180.054688 C 135.925781 180.054688 134.589844 182.648438 135.945312 184.480469 C 144.945312 196.652344 159.421875 204.550781 175.753906 204.554688 L 175.753906 105.960938 C 159.421875 105.957031 144.941406 113.859375 135.9375 126.035156 C 134.582031 127.863281 135.917969 130.460938 138.203125 130.460938 Z M 138.203125 130.460938 " fill-opacity="1" fill-rule="nonzero"/><g fill="#ffffff" fill-opacity="1"><g transform="translate(84.240295, 273.003438)"><g><path d="M 22.230469 -14.476562 L 22.257812 -14.476562 L 22.257812 0 L 26.738281 0 L 26.738281 -21.921875 L 20.71875 -21.921875 L 14.613281 -7.222656 L 8.398438 -21.921875 L 2.546875 -21.921875 L 2.546875 0 L 7 0 L 7 -14.363281 L 7.027344 -14.363281 L 13.101562 0 L 16.125 0 Z M 22.230469 -14.476562 "/></g></g></g><g fill="#ffffff" fill-opacity="1"><g transform="translate(113.524304, 273.003438)"><g><path d="M 1.484375 -20.15625 C 1.484375 -18.675781 2.714844 -17.46875 4.171875 -17.46875 C 5.710938 -17.46875 6.914062 -18.675781 6.914062 -20.15625 C 6.914062 -21.671875 5.710938 -22.875 4.171875 -22.875 C 2.714844 -22.875 1.484375 -21.671875 1.484375 -20.15625 Z M 2.015625 0 L 2.015625 -14.949219 L 6.410156 -14.949219 L 6.410156 0 Z M 2.015625 0 "/></g></g></g><g fill="#ffffff" fill-opacity="1"><g transform="translate(121.951149, 273.003438)"><g><path d="M 13.269531 -4.507812 C 13.269531 -7.222656 11.085938 -8.625 7.503906 -9.378906 C 6.019531 -9.6875 5.542969 -10.164062 5.542969 -10.75 C 5.542969 -11.339844 6.1875 -11.84375 7.113281 -11.84375 C 8.484375 -11.84375 9.324219 -11.28125 9.828125 -10.414062 L 12.992188 -12.289062 C 12.066406 -14.054688 10.078125 -15.316406 7.222656 -15.316406 C 4.199219 -15.316406 1.484375 -13.4375 1.484375 -10.582031 C 1.484375 -7.617188 4.03125 -6.355469 6.804688 -5.738281 C 8.875 -5.292969 9.183594 -4.789062 9.183594 -4.285156 C 9.183594 -3.722656 8.484375 -3.191406 7.363281 -3.191406 C 5.710938 -3.191406 4.535156 -3.949219 4.003906 -5.011719 L 0.785156 -3.109375 C 1.875 -1.035156 3.808594 0.335938 7.308594 0.335938 C 11.058594 0.335938 13.269531 -1.707031 13.269531 -4.507812 Z M 13.269531 -4.507812 "/></g></g></g><g fill="#ffffff" fill-opacity="1"><g transform="translate(136.285194, 273.003438)"><g><path d="M 9.15625 0.335938 C 12.375 0.335938 15.148438 -1.148438 16.351562 -4.3125 L 12.488281 -5.90625 C 12.011719 -4.789062 11.058594 -3.695312 9.183594 -3.695312 C 7.027344 -3.695312 5.597656 -5.292969 5.597656 -7.503906 C 5.597656 -9.882812 7.25 -11.28125 9.183594 -11.28125 C 11.058594 -11.28125 11.898438 -10.21875 12.402344 -9.070312 L 16.238281 -10.667969 C 15.257812 -13.691406 12.402344 -15.285156 9.183594 -15.285156 C 4.703125 -15.285156 1.121094 -11.871094 1.121094 -7.449219 C 1.121094 -2.996094 4.453125 0.335938 9.15625 0.335938 Z M 9.15625 0.335938 "/></g></g></g><g fill="#ffffff" fill-opacity="1"><g transform="translate(153.50284, 273.003438)"><g><path d="M 5.542969 -6.269531 L 16.40625 -6.269531 C 16.460938 -6.777344 16.460938 -7.308594 16.460938 -7.839844 C 16.460938 -12.261719 13.46875 -15.316406 9.015625 -15.316406 C 4.703125 -15.316406 1.09375 -11.816406 1.09375 -7.503906 C 1.09375 -2.855469 4.757812 0.335938 9.296875 0.335938 C 12.320312 0.335938 14.476562 -0.785156 15.734375 -3.050781 L 12.570312 -5.125 C 11.898438 -4.003906 10.5 -3.332031 9.238281 -3.332031 C 7.417969 -3.332031 5.824219 -4.394531 5.542969 -6.269531 Z M 12.09375 -9.15625 L 5.65625 -9.15625 C 5.824219 -10.136719 6.945312 -11.757812 8.902344 -11.757812 C 11.085938 -11.757812 12.011719 -10.246094 12.09375 -9.15625 Z M 12.09375 -9.15625 "/></g></g></g><g fill="#ffffff" fill-opacity="1"><g transform="translate(171.056451, 273.003438)"><g><path d="M 6.410156 -22.816406 L 2.015625 -22.816406 L 2.015625 0 L 6.410156 0 Z M 6.410156 -22.816406 "/></g></g></g><g fill="#ffffff" fill-opacity="1"><g transform="translate(179.483296, 273.003438)"><g><path d="M 6.410156 -22.816406 L 2.015625 -22.816406 L 2.015625 0 L 6.410156 0 Z M 6.410156 -22.816406 "/></g></g></g><g fill="#ffffff" fill-opacity="1"><g transform="translate(187.910141, 273.003438)"><g><path d="M 6.214844 0.28125 C 7.839844 0.28125 9.574219 -0.28125 10.695312 -1.875 L 10.75 -1.847656 L 10.75 0 L 14.78125 0 L 14.78125 -9.265625 C 14.78125 -13.296875 12.09375 -15.285156 8.289062 -15.285156 C 4.898438 -15.285156 2.632812 -13.941406 1.429688 -11.730469 L 4.757812 -9.742188 C 5.488281 -11.058594 6.523438 -11.757812 8.089844 -11.757812 C 9.742188 -11.757812 10.5 -10.863281 10.5 -9.910156 C 10.5 -9.296875 10.136719 -8.820312 9.324219 -8.820312 L 7.839844 -8.820312 C 4.816406 -8.820312 1.175781 -7.921875 1.175781 -4.226562 L 1.175781 -4.171875 C 1.175781 -1.398438 3.527344 0.28125 6.214844 0.28125 Z M 7.476562 -2.910156 C 6.4375 -2.910156 5.570312 -3.359375 5.570312 -4.421875 C 5.570312 -5.597656 6.664062 -6.132812 7.839844 -6.132812 L 10.472656 -6.132812 L 10.472656 -5.796875 C 10.472656 -4.226562 9.40625 -2.910156 7.476562 -2.910156 Z M 7.476562 -2.910156 "/></g></g></g><g fill="#ffffff" fill-opacity="1"><g transform="translate(204.567874, 273.003438)"><g><path d="M 11.675781 -8.289062 L 11.675781 0 L 16.015625 0 L 16.015625 -9.296875 C 16.015625 -12.375 14.417969 -15.230469 10.609375 -15.230469 C 10.023438 -15.230469 7.53125 -15.007812 6.382812 -12.992188 L 6.355469 -12.992188 L 6.355469 -14.949219 L 2.015625 -14.949219 L 2.015625 0 L 6.382812 0 L 6.382812 -8.289062 C 6.382812 -9.828125 7.222656 -11.199219 9.070312 -11.199219 C 10.863281 -11.199219 11.675781 -9.96875 11.675781 -8.289062 Z M 11.675781 -8.289062 "/></g></g></g><g fill="#ffffff" fill-opacity="1"><g transform="translate(222.457438, 273.003438)"><g><path d="M 5.542969 -6.269531 L 16.40625 -6.269531 C 16.460938 -6.777344 16.460938 -7.308594 16.460938 -7.839844 C 16.460938 -12.261719 13.46875 -15.316406 9.015625 -15.316406 C 4.703125 -15.316406 1.09375 -11.816406 1.09375 -7.503906 C 1.09375 -2.855469 4.757812 0.335938 9.296875 0.335938 C 12.320312 0.335938 14.476562 -0.785156 15.734375 -3.050781 L 12.570312 -5.125 C 11.898438 -4.003906 10.5 -3.332031 9.238281 -3.332031 C 7.417969 -3.332031 5.824219 -4.394531 5.542969 -6.269531 Z M 12.09375 -9.15625 L 5.65625 -9.15625 C 5.824219 -10.136719 6.945312 -11.757812 8.902344 -11.757812 C 11.085938 -11.757812 12.011719 -10.246094 12.09375 -9.15625 Z M 12.09375 -9.15625 "/></g></g></g><g fill="#ffffff" fill-opacity="1"><g transform="translate(240.011049, 273.003438)"><g><path d="M 1.09375 -7.449219 C 1.09375 -2.941406 4.703125 0.335938 9.238281 0.335938 C 13.746094 0.335938 17.414062 -3.023438 17.414062 -7.53125 C 17.414062 -11.984375 13.804688 -15.285156 9.296875 -15.285156 C 4.757812 -15.285156 1.09375 -11.898438 1.09375 -7.449219 Z M 5.570312 -7.503906 C 5.570312 -9.742188 7.195312 -11.3125 9.238281 -11.3125 C 11.28125 -11.3125 12.933594 -9.742188 12.933594 -7.503906 C 12.933594 -5.234375 11.3125 -3.667969 9.265625 -3.667969 C 7.222656 -3.667969 5.570312 -5.234375 5.570312 -7.503906 Z M 5.570312 -7.503906 "/></g></g></g><g fill="#ffffff" fill-opacity="1"><g transform="translate(258.516521, 273.003438)"><g><path d="M 6.242188 -6.605469 L 6.242188 -14.949219 L 1.875 -14.949219 L 1.875 -5.570312 C 1.875 -2.492188 3.640625 0.308594 7.363281 0.308594 C 7.785156 0.308594 10.023438 0.335938 11.535156 -1.847656 L 11.5625 -1.847656 L 11.5625 0 L 15.875 0 L 15.875 -14.949219 L 11.507812 -14.949219 L 11.507812 -6.605469 C 11.507812 -5.066406 10.667969 -3.75 8.820312 -3.75 C 7 -3.75 6.242188 -4.957031 6.242188 -6.605469 Z M 6.242188 -6.605469 "/></g></g></g><g fill="#ffffff" fill-opacity="1"><g transform="translate(276.406085, 273.003438)"><g><path d="M 13.269531 -4.507812 C 13.269531 -7.222656 11.085938 -8.625 7.503906 -9.378906 C 6.019531 -9.6875 5.542969 -10.164062 5.542969 -10.75 C 5.542969 -11.339844 6.1875 -11.84375 7.113281 -11.84375 C 8.484375 -11.84375 9.324219 -11.28125 9.828125 -10.414062 L 12.992188 -12.289062 C 12.066406 -14.054688 10.078125 -15.316406 7.222656 -15.316406 C 4.199219 -15.316406 1.484375 -13.4375 1.484375 -10.582031 C 1.484375 -7.617188 4.03125 -6.355469 6.804688 -5.738281 C 8.875 -5.292969 9.183594 -4.789062 9.183594 -4.285156 C 9.183594 -3.722656 8.484375 -3.191406 7.363281 -3.191406 C 5.710938 -3.191406 4.535156 -3.949219 4.003906 -5.011719 L 0.785156 -3.109375 C 1.875 -1.035156 3.808594 0.335938 7.308594 0.335938 C 11.058594 0.335938 13.269531 -1.707031 13.269531 -4.507812 Z M 13.269531 -4.507812 "/></g></g></g></svg>