<svg xmlns="http://www.w3.org/2000/svg" xmlns:xlink="http://www.w3.org/1999/xlink" width="500" zoomAndPan="magnify" viewBox="0 0 375 374.999991" height="500" preserveAspectRatio="xMidYMid meet" version="1.0"><defs><g/><clipPath id="3294d6099c"><path d="M 152 98.71875 L 224 98.71875 L 224 171 L 152 171 Z M 152 98.71875 " clip-rule="nonzero"/></clipPath><clipPath id="3a824d79f3"><path d="M 140 171 L 235 171 L 235 221.71875 L 140 221.71875 Z M 140 171 " clip-rule="nonzero"/></clipPath></defs><g clip-path="url(#3294d6099c)"><path fill="#ffffff" d="M 155.878906 110.507812 C 155.878906 105.863281 159.648438 102.089844 164.285156 102.089844 L 211.363281 102.089844 C 216 102.089844 219.761719 105.863281 219.761719 110.507812 L 219.761719 170.304688 L 223.128906 170.304688 L 223.128906 110.507812 C 223.128906 104.011719 217.847656 98.71875 211.359375 98.71875 L 164.28125 98.71875 C 157.792969 98.71875 152.519531 104.011719 152.519531 110.507812 L 152.519531 170.304688 L 155.878906 170.304688 Z M 155.878906 110.507812 " fill-opacity="1" fill-rule="nonzero"/></g><path fill="#ffffff" d="M 157.894531 115.949219 L 217.75 115.949219 L 217.75 170.304688 L 157.894531 170.304688 Z M 157.894531 115.949219 " fill-opacity="1" fill-rule="nonzero"/><path fill="#ffffff" d="M 211.359375 104.433594 L 164.28125 104.433594 C 160.757812 104.433594 157.890625 107.304688 157.890625 110.832031 L 157.890625 114 L 217.75 114 L 217.75 110.832031 C 217.75 107.308594 214.882812 104.433594 211.359375 104.433594 Z M 196.097656 110.308594 L 179.546875 110.308594 C 178.941406 110.308594 178.453125 109.824219 178.453125 109.21875 C 178.453125 108.617188 178.945312 108.128906 179.546875 108.128906 L 196.097656 108.128906 C 196.699219 108.128906 197.1875 108.621094 197.1875 109.21875 C 197.1875 109.824219 196.699219 110.308594 196.097656 110.308594 Z M 205.941406 111.054688 C 204.925781 111.054688 204.117188 110.230469 204.117188 109.21875 C 204.117188 108.203125 204.929688 107.382812 205.941406 107.382812 C 206.953125 107.382812 207.769531 108.203125 207.769531 109.21875 C 207.769531 110.230469 206.953125 111.054688 205.941406 111.054688 Z M 205.941406 111.054688 " fill-opacity="1" fill-rule="nonzero"/><path fill="#ffffff" d="M 217.832031 171.96875 L 212.183594 171.96875 C 212.570312 176.148438 211.890625 180.378906 210.113281 184.316406 C 207.410156 190.285156 202.546875 194.84375 196.425781 197.144531 C 193.652344 198.191406 190.757812 198.722656 187.820312 198.722656 C 177.6875 198.722656 168.46875 192.324219 164.902344 182.808594 C 163.578125 179.292969 163.117188 175.601562 163.449219 171.96875 L 157.820312 171.96875 C 157.5 176.269531 158.082031 180.625 159.644531 184.785156 C 164.027344 196.488281 175.351562 204.347656 187.820312 204.347656 C 191.433594 204.347656 194.996094 203.699219 198.402344 202.414062 C 205.9375 199.578125 211.914062 193.972656 215.234375 186.636719 C 217.339844 181.960938 218.207031 176.945312 217.832031 171.96875 Z M 217.832031 171.96875 " fill-opacity="1" fill-rule="nonzero"/><path fill="#ffffff" d="M 210.378906 171.96875 L 165.261719 171.96875 C 164.859375 175.523438 165.28125 179.144531 166.566406 182.585938 C 169.882812 191.417969 178.425781 197.351562 187.839844 197.351562 C 190.558594 197.351562 193.246094 196.859375 195.824219 195.890625 C 201.503906 193.753906 206.011719 189.519531 208.523438 183.984375 C 210.257812 180.164062 210.859375 176.03125 210.378906 171.96875 Z M 210.378906 171.96875 " fill-opacity="1" fill-rule="nonzero"/><g clip-path="url(#3a824d79f3)"><path fill="#ffffff" d="M 233.136719 184.324219 L 225.167969 180.699219 C 223.847656 180.097656 222.882812 178.425781 223.027344 176.976562 L 223.183594 172.621094 C 223.171875 172.40625 223.195312 172.1875 223.238281 171.96875 L 219.671875 171.96875 C 219.703125 172.527344 219.71875 173.085938 219.71875 173.648438 C 219.71875 191.265625 205.40625 205.605469 187.816406 205.605469 C 170.234375 205.605469 155.925781 191.265625 155.925781 173.648438 C 155.925781 173.085938 155.945312 172.527344 155.96875 171.96875 L 152.539062 171.96875 L 152.449219 174.628906 C 152.5 176.09375 151.4375 177.707031 150.074219 178.214844 L 141.882812 181.296875 C 140.527344 181.808594 139.835938 183.34375 140.34375 184.703125 L 144.816406 196.628906 C 145.332031 198 146.855469 198.6875 148.21875 198.175781 L 156.40625 195.101562 C 157.769531 194.589844 159.621094 195.089844 160.550781 196.214844 L 163.519531 199.390625 C 164.585938 200.382812 164.964844 202.28125 164.363281 203.609375 L 160.75 211.601562 C 160.152344 212.921875 160.738281 214.496094 162.058594 215.101562 L 173.652344 220.363281 C 174.972656 220.964844 176.542969 220.371094 177.144531 219.050781 L 180.761719 211.054688 C 181.359375 209.726562 183.039062 208.769531 184.480469 208.910156 L 188.832031 209.066406 C 190.28125 209.007812 191.886719 210.085938 192.398438 211.449219 L 195.472656 219.65625 C 195.980469 221.023438 197.519531 221.714844 198.871094 221.199219 L 210.78125 216.71875 C 212.140625 216.203125 212.835938 214.675781 212.320312 213.3125 L 209.238281 205.105469 C 208.734375 203.734375 209.238281 201.871094 210.359375 200.953125 L 213.535156 197.96875 C 214.523438 196.902344 216.417969 196.523438 217.738281 197.128906 L 225.710938 200.753906 C 227.039062 201.351562 228.617188 200.757812 229.207031 199.4375 L 234.457031 187.824219 C 235.046875 186.5 234.464844 184.921875 233.136719 184.324219 Z M 233.136719 184.324219 " fill-opacity="1" fill-rule="nonzero"/></g><g fill="#ffffff" fill-opacity="1"><g transform="translate(86.047763, 262.940812)"><g><path d="M 18.910156 -19.496094 L 12.703125 -6.011719 L 6.5625 -19.496094 L 1.917969 -19.496094 L 1.917969 0 L 6.207031 0 L 6.207031 -11.632812 L 11.46875 0 L 13.941406 0 L 19.234375 -11.601562 L 19.234375 0 L 23.527344 0 L 23.527344 -19.496094 Z M 18.910156 -19.496094 "/></g></g></g><g fill="#ffffff" fill-opacity="1"><g transform="translate(110.967681, 262.940812)"><g><path d="M 2.078125 0 L 6.367188 0 L 6.367188 -19.496094 L 2.078125 -19.496094 Z M 2.078125 0 "/></g></g></g><g fill="#ffffff" fill-opacity="1"><g transform="translate(118.86267, 262.940812)"><g><path d="M 7.929688 0.261719 C 11.566406 0.261719 14.65625 -1.882812 14.65625 -5.523438 C 14.65625 -12.738281 5.6875 -10.949219 5.6875 -14.328125 C 5.6875 -15.433594 6.53125 -15.953125 7.570312 -15.953125 C 8.675781 -15.953125 9.78125 -15.335938 10.753906 -14.265625 L 13.613281 -16.996094 C 12.183594 -18.652344 10.007812 -19.757812 7.605469 -19.757812 C 4.515625 -19.757812 1.363281 -17.902344 1.363281 -14.003906 C 1.363281 -7.375 10.367188 -8.96875 10.367188 -5.554688 C 10.367188 -4.484375 9.457031 -3.769531 7.960938 -3.769531 C 6.171875 -3.769531 4.777344 -4.777344 4.0625 -6.304688 L 0.519531 -4.09375 C 1.789062 -1.65625 4.515625 0.261719 7.929688 0.261719 Z M 7.929688 0.261719 "/></g></g></g><g fill="#ffffff" fill-opacity="1"><g transform="translate(133.743076, 262.940812)"><g><path d="M 11.210938 0.261719 C 15.078125 0.261719 18.425781 -1.917969 20.082031 -5.101562 L 16.375 -7.019531 C 15.433594 -5.167969 13.515625 -3.933594 11.210938 -3.933594 C 7.929688 -3.933594 5.425781 -6.464844 5.425781 -9.75 C 5.425781 -13.03125 7.929688 -15.566406 11.210938 -15.566406 C 13.515625 -15.566406 15.433594 -14.328125 16.375 -12.476562 L 20.082031 -14.394531 C 18.425781 -17.578125 15.078125 -19.757812 11.210938 -19.757812 C 5.6875 -19.757812 1.203125 -15.273438 1.203125 -9.75 C 1.203125 -4.222656 5.6875 0.261719 11.210938 0.261719 Z M 11.210938 0.261719 "/></g></g></g><g fill="#ffffff" fill-opacity="1"><g transform="translate(154.146834, 262.940812)"><g><path d="M 6.207031 -3.800781 L 6.207031 -19.496094 L 1.917969 -19.496094 L 1.917969 0 L 12.671875 0 L 12.671875 -3.800781 Z M 6.207031 -3.800781 "/></g></g></g><g fill="#ffffff" fill-opacity="1"><g transform="translate(166.363035, 262.940812)"><g><path d="M 6.207031 -3.800781 L 6.207031 -19.496094 L 1.917969 -19.496094 L 1.917969 0 L 12.671875 0 L 12.671875 -3.800781 Z M 6.207031 -3.800781 "/></g></g></g><g fill="#ffffff" fill-opacity="1"><g transform="translate(178.579236, 262.940812)"><g><path d="M 13.84375 0 L 18.425781 0 L 11.40625 -19.496094 L 6.597656 -19.496094 L -0.421875 0 L 4.160156 0 L 5.363281 -3.671875 L 12.640625 -3.671875 Z M 6.5 -7.246094 L 9 -14.980469 L 11.503906 -7.246094 Z M 6.5 -7.246094 "/></g></g></g><g fill="#ffffff" fill-opacity="1"><g transform="translate(196.058872, 262.940812)"><g><path d="M 15.921875 -19.496094 L 15.921875 -6.597656 L 6.335938 -19.496094 L 1.917969 -19.496094 L 1.917969 0 L 6.207031 0 L 6.207031 -12.933594 L 15.757812 0 L 20.179688 0 L 20.179688 -19.496094 Z M 15.921875 -19.496094 "/></g></g></g><g fill="#ffffff" fill-opacity="1"><g transform="translate(217.664779, 262.940812)"><g><path d="M 13.808594 -15.726562 L 13.808594 -19.496094 L 2.078125 -19.496094 L 2.078125 0 L 13.808594 0 L 13.808594 -3.769531 L 6.367188 -3.769531 L 6.367188 -7.863281 L 12.738281 -7.863281 L 12.738281 -11.632812 L 6.367188 -11.632812 L 6.367188 -15.726562 Z M 13.808594 -15.726562 "/></g></g></g><g fill="#ffffff" fill-opacity="1"><g transform="translate(232.285269, 262.940812)"><g><path d="M 11.210938 0.261719 C 16.765625 0.261719 21.21875 -4.222656 21.21875 -9.75 C 21.21875 -15.273438 16.765625 -19.757812 11.210938 -19.757812 C 5.6875 -19.757812 1.203125 -15.273438 1.203125 -9.75 C 1.203125 -4.222656 5.6875 0.261719 11.210938 0.261719 Z M 11.210938 -3.933594 C 7.929688 -3.933594 5.425781 -6.464844 5.425781 -9.75 C 5.425781 -13.03125 7.929688 -15.566406 11.210938 -15.566406 C 14.523438 -15.566406 17.027344 -13.03125 17.027344 -9.75 C 17.027344 -6.464844 14.523438 -3.933594 11.210938 -3.933594 Z M 11.210938 -3.933594 "/></g></g></g><g fill="#ffffff" fill-opacity="1"><g transform="translate(254.216073, 262.940812)"><g><path d="M 9.910156 0.261719 C 14.523438 0.261719 18.035156 -2.566406 18.035156 -6.238281 L 18.035156 -19.496094 L 13.746094 -19.496094 L 13.746094 -7.050781 C 13.746094 -5.070312 12.085938 -3.542969 9.910156 -3.542969 C 7.765625 -3.542969 6.109375 -5.070312 6.109375 -7.050781 L 6.109375 -19.496094 L 1.820312 -19.496094 L 1.820312 -6.238281 C 1.820312 -2.566406 5.363281 0.261719 9.910156 0.261719 Z M 9.910156 0.261719 "/></g></g></g><g fill="#ffffff" fill-opacity="1"><g transform="translate(273.54766, 262.940812)"><g><path d="M 7.929688 0.261719 C 11.566406 0.261719 14.65625 -1.882812 14.65625 -5.523438 C 14.65625 -12.738281 5.6875 -10.949219 5.6875 -14.328125 C 5.6875 -15.433594 6.53125 -15.953125 7.570312 -15.953125 C 8.675781 -15.953125 9.78125 -15.335938 10.753906 -14.265625 L 13.613281 -16.996094 C 12.183594 -18.652344 10.007812 -19.757812 7.605469 -19.757812 C 4.515625 -19.757812 1.363281 -17.902344 1.363281 -14.003906 C 1.363281 -7.375 10.367188 -8.96875 10.367188 -5.554688 C 10.367188 -4.484375 9.457031 -3.769531 7.960938 -3.769531 C 6.171875 -3.769531 4.777344 -4.777344 4.0625 -6.304688 L 0.519531 -4.09375 C 1.789062 -1.65625 4.515625 0.261719 7.929688 0.261719 Z M 7.929688 0.261719 "/></g></g></g></svg>