<svg xmlns="http://www.w3.org/2000/svg" xmlns:xlink="http://www.w3.org/1999/xlink" width="500" zoomAndPan="magnify" viewBox="0 0 375 374.999991" height="500" preserveAspectRatio="xMidYMid meet" version="1.0"><defs><clipPath id="438eda0d60"><path d="M 181 61 L 309.726562 61 L 309.726562 315 L 181 315 Z M 181 61 " clip-rule="nonzero"/></clipPath></defs><path fill="#ffffff" d="M 181.886719 130.808594 L 181.882812 242.410156 L 181.886719 246.804688 C 189.023438 246.792969 196.175781 245.570312 203.050781 242.988281 C 226.402344 234.207031 242.09375 211.527344 242.089844 186.570312 C 242.082031 179.371094 240.789062 172.246094 238.21875 165.40625 C 232.574219 150.328125 221.382812 138.375 206.742188 131.730469 C 198.789062 128.132812 190.359375 126.394531 181.882812 126.394531 Z M 181.886719 130.808594 " fill-opacity="1" fill-rule="nonzero"/><g clip-path="url(#438eda0d60)"><path fill="#ffffff" d="M 210.46875 65.25 L 200.78125 86.578125 C 199.175781 90.113281 194.71875 92.6875 190.847656 92.3125 L 181.882812 91.996094 L 181.882812 113.460938 C 181.894531 114.824219 181.894531 114.824219 181.894531 114.824219 C 221.492188 114.824219 253.597656 146.957031 253.597656 186.597656 C 253.597656 226.226562 221.480469 258.351562 181.898438 258.347656 C 181.898438 258.347656 181.898438 258.347656 181.886719 258.347656 L 181.894531 274.140625 L 181.894531 281.203125 L 184.585938 281.292969 C 188.492188 281.160156 192.785156 284.011719 194.148438 287.660156 L 202.394531 309.574219 C 203.757812 313.214844 207.855469 315.089844 211.492188 313.714844 L 243.324219 301.734375 C 246.988281 300.359375 248.835938 296.261719 247.460938 292.613281 L 239.234375 270.6875 C 237.863281 267.042969 239.199219 262.078125 242.222656 259.589844 L 250.691406 251.632812 C 253.34375 248.773438 258.421875 247.769531 261.960938 249.378906 L 283.289062 259.085938 C 286.824219 260.683594 291.03125 259.105469 292.636719 255.570312 L 306.695312 224.535156 C 308.304688 220.988281 306.722656 216.792969 303.191406 215.167969 L 281.839844 205.5 C 278.300781 203.890625 275.746094 199.398438 276.121094 195.539062 L 276.539062 183.886719 C 276.386719 180.019531 279.261719 175.707031 282.882812 174.332031 L 304.820312 166.101562 C 308.453125 164.730469 310.292969 160.625 308.910156 157 L 296.949219 125.121094 C 295.59375 121.472656 291.507812 119.621094 287.855469 120.992188 L 265.945312 129.234375 C 262.300781 130.585938 257.316406 129.265625 254.871094 126.238281 L 246.910156 117.738281 C 244.050781 115.085938 243.042969 110 244.65625 106.488281 L 254.335938 85.128906 C 255.9375 81.578125 254.34375 77.355469 250.820312 75.773438 L 219.820312 61.695312 C 216.285156 60.117188 212.054688 61.695312 210.46875 65.25 Z M 210.46875 65.25 " fill-opacity="1" fill-rule="nonzero"/></g><path fill="#ffffff" d="M 99.515625 138.894531 L 135.121094 138.894531 C 140.511719 138.894531 144.875 143.269531 144.875 148.65625 C 144.875 154.046875 140.503906 158.414062 135.121094 158.414062 L 87.878906 158.414062 C 83.675781 158.414062 80.035156 161.324219 79.105469 165.425781 L 79.0625 165.605469 C 77.765625 171.335938 82.113281 176.78125 87.980469 176.78125 L 137.011719 176.78125 C 142.394531 176.78125 146.757812 181.144531 146.757812 186.535156 C 146.757812 191.921875 142.394531 196.292969 137.011719 196.292969 L 87.984375 196.292969 C 82.125 196.28125 77.773438 201.730469 79.066406 207.453125 L 79.109375 207.632812 C 80.039062 211.742188 83.6875 214.65625 87.890625 214.65625 L 137.023438 214.652344 C 142.40625 214.652344 146.769531 219.019531 146.769531 224.40625 C 146.769531 229.792969 142.40625 234.164062 137.023438 234.164062 L 99.527344 234.164062 C 95.15625 234.164062 92.597656 239.148438 95.195312 242.664062 C 112.417969 266.050781 140.117188 281.222656 171.371094 281.230469 L 171.371094 91.832031 C 140.117188 91.828125 112.414062 107.003906 95.183594 130.394531 C 92.585938 133.914062 95.144531 138.894531 99.515625 138.894531 Z M 99.515625 138.894531 " fill-opacity="1" fill-rule="nonzero"/></svg>