<svg width="123" height="118" viewBox="0 0 123 118" fill="none" xmlns="http://www.w3.org/2000/svg">
<g clip-path="url(#clip0)">
<path d="M60.05 68.41L18.02 46.33L6.19998 60.47C21.11 68.35 36.02 76.23 50.94 84.12L60.05 68.41ZM63.3 23.47L21.12 44.39L62.24 66L103.44 44.35L79.81 31.99L63.3 23.47ZM15.89 43.95L0.389975 29.27C-0.180025 28.62 -0.120025 27.62 0.539975 27.04C0.629975 26.96 0.739975 26.89 0.839975 26.83L47.95 0.180001C48.7 -0.219999 49.63 0.0600006 50.05 0.790001L63.28 19.01L72.1 2.49C72.51 1.72 73.46 1.42 74.23 1.83L122.03 27.1C122.17 27.18 122.3 27.27 122.42 27.39C123.03 28.01 123.02 29.01 122.4 29.62L108.24 43.53L121.95 59.94C122.51 60.61 122.42 61.61 121.75 62.16C121.65 62.24 121.54 62.31 121.43 62.37L109.12 68.88V93.28C109.12 93.94 108.72 94.5 108.14 94.74L63.63 117.33C63.34 117.65 62.92 117.85 62.46 117.85C61.84 117.85 61.31 117.5 61.05 116.98L16.46 94.68C15.91 94.4 15.59 93.85 15.59 93.27V69L3.04998 62.37C2.93998 62.31 2.82998 62.24 2.72998 62.16C2.05998 61.6 1.96998 60.6 2.52998 59.94L15.89 43.95ZM60.84 21.06L48.11 3.67L4.06998 28.7L18.46 42.1L60.84 21.06ZM65.75 21.08L80.5 28.8L105.58 41.73L118.65 28.89L74.15 5.35L65.75 21.08ZM106.47 46.33L64.44 68.41L73.55 84.11L118.29 60.46L106.47 46.33Z" fill="white"/>
</g>
<defs>
<clipPath id="clip0">
<rect width="122.88" height="117.85" fill="white"/>
</clipPath>
</defs>
</svg>
