<svg width="120" height="123" viewBox="0 0 120 123" fill="none" xmlns="http://www.w3.org/2000/svg">
<g clip-path="url(#clip0)">
<path d="M87.29 77.05C86.47 78.36 85.37 79.37 84.12 80.04C83.01 80.64 81.78 80.97 80.56 81.01C79.32 81.05 78.08 80.77 76.95 80.19C76.18 79.78 75.47 79.23 74.85 78.52L87.29 77.05ZM82.09 2.37C82.13 1.68 82.44 1.07 82.92 0.64C83.39 0.22 84.02 -0.02 84.7 0.01V0C84.76 0 84.81 0.01 84.87 0.02C85.5 0.09 86.06 0.4 86.45 0.84C86.87 1.31 87.11 1.93 87.08 2.62H87.09C87.09 2.66 87.09 2.71 87.08 2.75L86.78 8.08H86.79C86.79 8.14 86.78 8.19 86.77 8.25C86.7 8.89 86.39 9.44 85.95 9.83C85.48 10.25 84.85 10.49 84.17 10.46V10.47C84.11 10.47 84.06 10.46 84 10.45C83.36 10.38 82.81 10.07 82.42 9.63C82 9.16 81.76 8.53 81.79 7.85H81.78C81.78 7.81 81.78 7.76 81.79 7.72L82.09 2.37ZM54.69 10.88C54.2 10.39 53.95 9.75 53.95 9.11C53.94 8.47 54.19 7.83 54.67 7.34C55.16 6.85 55.8 6.6 56.44 6.6C57.08 6.59 57.72 6.84 58.21 7.32L62.1 11.18C62.59 11.67 62.84 12.31 62.84 12.95C62.84 13.59 62.6 14.23 62.12 14.72C61.63 15.21 60.99 15.46 60.35 15.46C59.7 15.47 59.07 15.22 58.58 14.74L54.69 10.88ZM47.28 38.2C46.6 38.19 45.99 37.91 45.55 37.47C45.1 37.02 44.82 36.39 44.81 35.7C44.81 35.01 45.09 34.38 45.54 33.93C45.99 33.48 46.62 33.2 47.31 33.2L52.78 33.19C53.47 33.19 54.1 33.47 54.55 33.92C55 34.37 55.28 35 55.28 35.69V35.73H55.29L55.28 35.82C55.25 36.46 54.97 37.04 54.55 37.46C54.1 37.91 53.47 38.19 52.78 38.19H52.74V38.2H52.68H47.28ZM115.59 32.58H115.67C116.32 32.56 116.92 32.79 117.38 33.19C117.86 33.61 118.18 34.22 118.24 34.9V34.93C118.25 34.93 118.24 35 118.24 35.01C118.26 35.66 118.03 36.26 117.63 36.72C117.21 37.2 116.6 37.52 115.92 37.58L110.46 37.98C109.77 38.03 109.13 37.79 108.65 37.37C108.16 36.95 107.84 36.34 107.79 35.66C107.74 34.97 107.98 34.33 108.4 33.85C108.82 33.37 109.43 33.04 110.11 32.99C111.93 32.85 113.76 32.69 115.59 32.58ZM105.49 10.47C105.9 9.91 106.48 9.57 107.11 9.46C107.74 9.36 108.4 9.49 108.97 9.9L108.98 9.91C109.54 10.31 109.89 10.9 109.99 11.53C110.09 12.16 109.96 12.82 109.56 13.39L106.38 17.84C105.98 18.4 105.39 18.75 104.75 18.86C104.12 18.96 103.45 18.83 102.89 18.42C102.33 18.02 101.98 17.42 101.87 16.79C101.77 16.16 101.9 15.5 102.31 14.93L105.49 10.47ZM28.9 110.47V74.7H44.99C51.81 75.92 58.63 79.62 65.46 83.92H77.96C83.62 84.26 86.58 90 81.09 93.76C76.71 96.97 70.93 96.79 65 96.26C60.91 96.06 60.73 101.55 65 101.57C66.48 101.68 68.09 101.34 69.5 101.34C76.9 101.33 82.99 99.92 86.72 94.08L88.6 89.7L107.19 80.48C116.49 77.42 123.1 87.15 116.25 93.91C102.78 103.71 88.97 111.77 74.85 118.28C64.59 124.52 54.33 124.31 44.08 118.28L28.9 110.47ZM0 71.26H24.06V114.06H0V71.26ZM89.42 64.02L88.96 65.89L88.82 67.23L72.59 69.13C72.56 68.17 72.44 67.12 72.23 66.03L89.42 64.02ZM88.69 70.16L88.68 70.97L88.69 71.25C88.72 71.78 88.71 72.32 88.66 72.84L88.38 74L73.3 75.77L73.06 75.16L72.55 72.74L72.56 72.04L88.69 70.16Z" fill="white"/>
<path d="M67.33 54.79C65.56 52.63 63.73 50.39 62.32 47.14C60.95 43.93 60.23 40.64 60.36 37.25C60.5 33.86 61.47 30.39 63.46 26.84C63.47 26.81 63.49 26.8 63.5 26.77C66.09 22.69 69.61 20.01 73.49 18.58C76.74 17.37 80.24 17.03 83.65 17.45C87.05 17.87 90.35 19.04 93.21 20.86C96.85 23.17 99.79 26.52 101.34 30.68C102.18 32.93 102.71 35.44 102.7 38.16C102.69 40.87 102.14 43.78 100.79 46.83C98.73 51.51 94.1 56.45 91.02 61.02C90.86 60.98 90.7 60.97 90.53 60.99C84.19 61.73 77.85 62.47 71.52 63.21C70.58 60.07 69.08 56.93 67.33 54.79Z" fill="white"/>
</g>
<defs>
<clipPath id="clip0">
<rect width="119.06" height="122.88" fill="white"/>
</clipPath>
</defs>
</svg>
