<svg width="123" height="126" viewBox="0 0 123 126" fill="none" xmlns="http://www.w3.org/2000/svg">
<g clip-path="url(#clip0)">
<path fill-rule="evenodd" clip-rule="evenodd" d="M111.09 6.23C114.94 10.08 117.32 15.39 117.32 21.27C117.32 27.15 114.94 32.46 111.09 36.31C107.24 40.16 101.93 42.54 96.06 42.54C93.04 42.54 90.17 41.91 87.57 40.78L85.6 44.5C92.21 48.92 96.57 56.45 96.57 64.99C96.57 72.2 93.47 78.69 88.53 83.2L90.56 85.8C93.76 83.88 97.5 82.77 101.5 82.77C107.37 82.77 112.69 85.15 116.53 89C120.38 92.85 122.76 98.16 122.76 104.04C122.76 109.92 120.38 115.23 116.53 119.08C112.68 122.93 107.37 125.31 101.5 125.31C95.63 125.31 90.31 122.93 86.46 119.08C82.61 115.23 80.23 109.92 80.23 104.04C80.23 98.16 82.61 92.85 86.46 89C86.58 88.88 86.7 88.77 86.82 88.65L84.84 85.98C81.09 88.29 76.67 89.62 71.94 89.62C63.18 89.62 55.48 85.04 51.12 78.15L39.27 84.3C41.33 87.58 42.52 91.45 42.52 95.61C42.52 101.48 40.14 106.8 36.29 110.64C32.44 114.49 27.13 116.87 21.25 116.87C15.38 116.87 10.06 114.49 6.22 110.64C2.38 106.78 0 101.46 0 95.59C0 89.72 2.38 84.4 6.23 80.55C10.08 76.7 15.39 74.32 21.26 74.32C27.13 74.32 32.45 76.7 36.3 80.55L36.33 80.59L49.02 74C47.92 71.21 47.32 68.16 47.32 64.98C47.32 60.37 48.59 56.05 50.8 52.36L42.73 46.09C42.53 46.31 42.32 46.53 42.11 46.74C38.26 50.59 32.95 52.97 27.08 52.97C21.21 52.97 15.89 50.59 12.05 46.74C8.2 42.89 5.82 37.58 5.82 31.7C5.82 25.82 8.2 20.51 12.05 16.67C15.9 12.82 21.21 10.44 27.08 10.44C32.95 10.44 38.27 12.82 42.11 16.67C45.96 20.52 48.34 25.83 48.34 31.7C48.34 35.59 47.3 39.23 45.48 42.37L53.54 48.63C58.05 43.56 64.62 40.36 71.95 40.36C75.35 40.36 78.58 41.05 81.53 42.29L83.56 38.47C82.66 37.82 81.82 37.09 81.04 36.31C77.19 32.46 74.81 27.15 74.81 21.27C74.81 15.39 77.19 10.08 81.04 6.23C84.87 2.38 90.19 0 96.06 0C101.93 0 107.25 2.38 111.09 6.23ZM74.95 71.04C75.6 71.69 76 72.58 76 73.57C76 74.55 75.6 75.45 74.95 76.1C74.3 76.75 73.41 77.15 72.43 77.15C71.44 77.15 70.55 76.75 69.9 76.1C69.25 75.45 68.85 74.56 68.85 73.57C68.85 72.59 69.25 71.69 69.9 71.04C70.55 70.39 71.44 69.99 72.43 69.99C73.4 69.99 74.3 70.39 74.95 71.04ZM79.33 55.48C81.51 56.49 83.67 57.97 85.78 59.96C86.12 60.28 86.29 60.7 86.31 61.13C86.32 61.56 86.17 61.99 85.86 62.33L85.82 62.37C85.51 62.68 85.1 62.84 84.69 62.85C84.26 62.86 83.83 62.71 83.5 62.4L83.47 62.37C81.67 60.68 79.84 59.41 78.02 58.56C76.17 57.7 74.32 57.26 72.49 57.23C70.63 57.2 68.77 57.59 66.91 58.38C65.04 59.18 63.18 60.39 61.36 62C61.33 62.03 61.3 62.06 61.26 62.08C60.92 62.35 60.51 62.47 60.12 62.44C59.71 62.42 59.3 62.24 59 61.91C58.97 61.88 58.94 61.85 58.92 61.81C58.65 61.48 58.53 61.06 58.56 60.66C58.59 60.23 58.78 59.82 59.12 59.51C61.25 57.62 63.45 56.2 65.7 55.25C67.95 54.3 70.24 53.84 72.55 53.88C74.81 53.92 77.08 54.44 79.33 55.48ZM76.61 62.46C77.94 62.97 79.25 63.74 80.51 64.77L80.55 64.8C80.89 65.09 81.09 65.49 81.13 65.91C81.17 66.32 81.06 66.76 80.78 67.11L80.74 67.16C80.45 67.5 80.05 67.7 79.63 67.75C79.21 67.79 78.76 67.67 78.4 67.38C77.42 66.58 76.43 65.99 75.43 65.6C74.43 65.21 73.42 65.01 72.42 65.02C71.42 65.02 70.4 65.23 69.4 65.63C68.38 66.03 67.37 66.64 66.39 67.43C66.03 67.72 65.59 67.84 65.16 67.8C64.74 67.76 64.33 67.55 64.03 67.19C63.74 66.83 63.62 66.39 63.66 65.96V65.93C63.71 65.51 63.91 65.12 64.26 64.83C65.53 63.8 66.85 63.02 68.21 62.49C69.58 61.96 70.98 61.68 72.4 61.68C73.84 61.67 75.24 61.93 76.61 62.46ZM19.03 29.04H20.58V26.9C20.58 25.13 21.3 23.53 22.47 22.37C23.63 21.21 25.24 20.48 27.01 20.48C28.78 20.48 30.38 21.2 31.54 22.37C32.7 23.53 33.43 25.14 33.43 26.9V29.04H34.66C34.93 29.04 35.16 29.27 35.16 29.54V40.11C35.16 40.38 34.93 40.61 34.66 40.61H19.02C18.75 40.61 18.52 40.38 18.52 40.11V29.54C18.52 29.26 18.75 29.04 19.03 29.04ZM23.07 29.04H30.92V26.86C30.92 25.78 30.48 24.8 29.77 24.09C29.06 23.38 28.07 22.94 27 22.94C25.92 22.94 24.94 23.38 24.23 24.09C23.52 24.8 23.08 25.79 23.08 26.86V29.04H23.07ZM21.26 84.63L9.73 95.93L12.54 97.41L21.19 88.34L29.98 97.41L32.79 95.93L21.26 84.63ZM13.16 98.58L21.28 90.46L29.37 98.58V106.54H23.46H19.02H13.16V98.58ZM20.45 101.19L19.38 103.99H23.13L22.14 101.15C22.77 100.83 23.2 100.18 23.2 99.41C23.2 98.33 22.32 97.46 21.25 97.46C20.17 97.46 19.3 98.34 19.3 99.41C19.32 100.2 19.79 100.88 20.45 101.19ZM108.13 101.39C107.94 101.48 107.75 101.59 107.56 101.7C106.99 102.03 106.43 102.44 105.85 102.91L104.62 101.51C105.04 101.12 105.5 100.76 105.99 100.44C106.38 100.19 106.78 99.96 107.2 99.77C107.37 99.69 107.53 99.61 107.7 99.54C106.89 98.11 105.73 97.08 104.41 96.45C103.1 95.82 101.62 95.58 100.19 95.71C98.77 95.85 97.38 96.37 96.23 97.26C94.91 98.29 93.9 99.82 93.51 101.85L93.39 102.49L92.76 102.6C92.14 102.71 91.59 102.86 91.1 103.05C90.63 103.23 90.21 103.46 89.84 103.72C89.55 103.93 89.29 104.17 89.08 104.43C88.41 105.23 88.1 106.23 88.11 107.24C88.12 108.27 88.45 109.31 89.07 110.16C89.3 110.48 89.57 110.77 89.87 111.02C90.18 111.28 90.53 111.49 90.92 111.65C91.31 111.81 91.73 111.92 92.21 111.99H110.58C111.48 111.77 112.26 111.48 112.93 111.11C113.6 110.74 114.14 110.28 114.55 109.74C115.18 108.9 115.5 107.7 115.51 106.48C115.53 105.2 115.21 103.91 114.6 102.97C114.43 102.7 114.23 102.46 114.03 102.24C113.11 101.25 111.95 100.83 110.75 100.82C109.89 100.8 108.99 101.01 108.13 101.39ZM88.75 20.45C88.18 19.23 87.86 17.96 87.87 16.65C87.88 15.34 88.21 13.99 88.94 12.59C88.94 12.58 88.95 12.57 88.95 12.56C89.9 10.95 91.23 9.87 92.71 9.27C93.95 8.76 95.3 8.59 96.62 8.71C97.94 8.83 99.23 9.25 100.36 9.91C101.79 10.76 102.97 12.02 103.62 13.61C103.97 14.47 104.21 15.43 104.24 16.48C104.27 17.53 104.09 18.66 103.61 19.85L100.01 25.45L92.5 26.53C92.13 25.43 91.54 24.21 90.78 23.33C89.96 22.42 89.28 21.58 88.75 20.45ZM93.25 31.2C92.9 30.24 92.93 29.64 92.63 28.33L100.52 27.16C100.22 28.56 100.49 29.28 100.28 30.38C99.63 33.85 94.45 34.41 93.25 31.2ZM114.15 91.36C110.91 88.12 106.44 86.12 101.49 86.12C96.54 86.12 92.07 88.12 88.83 91.36C85.59 94.6 83.59 99.08 83.59 104.02C83.59 108.96 85.59 113.44 88.83 116.68C92.07 119.92 96.55 121.92 101.49 121.92C106.43 121.92 110.91 119.92 114.15 116.68C117.39 113.44 119.39 108.96 119.39 104.02C119.39 99.08 117.39 94.6 114.15 91.36ZM108.72 8.6C105.48 5.36 101.01 3.36 96.06 3.36C91.12 3.36 86.64 5.36 83.4 8.6C80.16 11.84 78.16 16.31 78.16 21.26C78.16 26.21 80.16 30.68 83.4 33.92C86.64 37.16 91.11 39.16 96.06 39.16C101 39.16 105.48 37.16 108.72 33.92C111.96 30.68 113.96 26.2 113.96 21.26C113.96 16.32 111.96 11.84 108.72 8.6ZM39.73 19.03C36.49 15.79 32.02 13.79 27.07 13.79C22.12 13.79 17.65 15.79 14.41 19.03C11.17 22.27 9.17 26.75 9.17 31.69C9.17 36.63 11.17 41.11 14.41 44.35C17.65 47.59 22.12 49.59 27.07 49.59C32.01 49.59 36.49 47.59 39.73 44.35C42.97 41.11 44.97 36.64 44.97 31.69C44.98 26.75 42.97 22.27 39.73 19.03ZM33.92 82.93C30.68 79.69 26.2 77.69 21.26 77.69C16.32 77.69 11.84 79.69 8.6 82.93C5.36 86.17 3.36 90.64 3.36 95.59C3.36 100.53 5.36 105.01 8.6 108.25C11.84 111.49 16.31 113.49 21.26 113.49C26.2 113.49 30.68 111.49 33.92 108.25C37.16 105.01 39.16 100.54 39.16 95.59C39.17 90.64 37.16 86.17 33.92 82.93Z" fill="white"/>
</g>
<defs>
<clipPath id="clip0">
<rect width="122.75" height="125.28" fill="white"/>
</clipPath>
</defs>
</svg>
