<svg width="123" height="74" viewBox="0 0 123 74" fill="none" xmlns="http://www.w3.org/2000/svg">
<g clip-path="url(#clip0)">
<path fill-rule="evenodd" clip-rule="evenodd" d="M122.88 62.8299H119.51V69.3599C119.51 71.6299 117.65 73.4899 115.38 73.4899H111.16C108.89 73.4899 107.03 71.6299 107.03 69.3599V62.8299H78.6V69.3599C78.6 71.6299 76.74 73.4899 74.47 73.4899H70.25C67.98 73.4899 66.12 71.6299 66.12 69.3599V62.8299H62.86V13.7599C62.86 8.98994 65.64 5.51994 71.24 3.36994C82.76 -1.12006 102.99 -1.12006 114.5 3.36994C120.1 5.52994 122.88 8.98994 122.88 13.7699V62.8299ZM53.18 45.8799V64.7399V69.2199V73.4899H46.73V69.2199H8.68V73.4899H2.22V69.2199V64.7399V45.8799H0V41.6399H5.43L8.46 32.2199C9.35 29.4499 10.84 26.9299 13.75 26.9299H20.41V23.1999C20.41 21.5299 20.06 21.6699 21.64 21.6699H33.96C35.28 21.6699 34.99 21.5399 34.99 22.9499V26.9299H42.78C45.69 26.9299 47.37 29.3999 48.07 32.2199L50.41 41.6399H55.4V45.8799H53.18ZM18.04 60.7099H37.1V65.2099H18.04V60.7099ZM4.38 50.2399C9.24 50.3899 12.21 52.4299 12.97 56.6699H4.38V50.2399ZM50.41 50.2399C45.55 50.3899 42.58 52.4299 41.82 56.6699H50.41V50.2399ZM7.75 41.6399H47.66L45.95 33.7399C45.48 31.5799 44.13 29.6999 41.91 29.6999H14.31C12.09 29.6999 10.96 31.6199 10.27 33.7399L7.75 41.6399ZM79.75 50.6299H105.99C106.22 50.6299 106.4 50.9299 106.4 51.2899V53.2699C106.4 53.6399 106.21 53.9299 105.99 53.9299H79.75C79.52 53.9299 79.34 53.6299 79.34 53.2699V51.2899C79.33 50.9299 79.52 50.6299 79.75 50.6299ZM79.75 55.6299H105.99C106.22 55.6299 106.4 55.9299 106.4 56.2899V58.2699C106.4 58.6299 106.21 58.9299 105.99 58.9299H79.75C79.52 58.9299 79.34 58.6299 79.34 58.2699V56.2899C79.33 55.9299 79.52 55.6299 79.75 55.6299ZM68.27 14.0399H89.67C90.33 14.0399 90.88 14.5799 90.88 15.2499V32.9299C90.88 33.5899 90.34 34.1399 89.67 34.1399H68.27C67.61 34.1399 67.06 33.5999 67.06 32.9299V15.2399C67.06 14.5799 67.61 14.0399 68.27 14.0399ZM95.97 14.0399H117.37C118.03 14.0399 118.58 14.5799 118.58 15.2499V32.9299C118.58 33.5899 118.04 34.1399 117.37 34.1399H95.97C95.31 34.1399 94.76 33.5999 94.76 32.9299V15.2399C94.77 14.5799 95.31 14.0399 95.97 14.0399ZM119.47 55.3299C119.47 54.0999 119.05 53.0699 118.2 52.2299C117.35 51.3799 116.31 50.9599 115.09 50.9599C113.9 50.9599 112.88 51.3899 112.01 52.2299C111.14 53.0799 110.72 54.0999 110.72 55.3299C110.72 56.5199 111.15 57.5299 112.01 58.3699C112.88 59.2199 113.9 59.6399 115.09 59.6399C116.3 59.6399 117.35 59.2199 118.2 58.3699C119.05 57.5299 119.47 56.5299 119.47 55.3299ZM75.01 55.3299C75.01 54.0999 74.58 53.0699 73.74 52.2299C72.89 51.3799 71.86 50.9599 70.63 50.9599C69.42 50.9599 68.37 51.3899 67.52 52.2299C66.67 53.0799 66.27 54.0999 66.27 55.3299C66.27 56.5199 66.67 57.5299 67.52 58.3699C68.37 59.2199 69.41 59.6399 70.63 59.6399C71.86 59.6399 72.89 59.2199 73.74 58.3699C74.58 57.5299 75.01 56.5299 75.01 55.3299Z" fill="white"/>
</g>
<defs>
<clipPath id="clip0">
<rect width="122.88" height="73.49" fill="white"/>
</clipPath>
</defs>
</svg>
