<svg width="123" height="84" viewBox="0 0 123 84" fill="none" xmlns="http://www.w3.org/2000/svg">
<g clip-path="url(#clip0)">
<path fill-rule="evenodd" clip-rule="evenodd" d="M42.41 68.89C42.3 69.56 42.25 70.25 42.25 70.95C42.25 78.12 48.06 83.92 55.22 83.92C62.38 83.92 68.19 78.11 68.19 70.95C68.19 70.25 68.13 69.56 68.03 68.89H89.1C89.01 69.5 88.97 70.13 88.97 70.77C88.97 78.04 94.86 83.93 102.13 83.93C109.4 83.93 115.29 78.04 115.29 70.77C115.29 69.97 115.22 69.19 115.08 68.43C119.43 68.14 122.89 64.89 122.89 60.46V34.65L106.53 17.05H90.1C89.1 17.05 88.4 17.96 88.29 18.95L84.11 56.13H63.57V52.88H78.04C78.54 52.88 78.97 52.67 79.3 52.34C79.63 52.01 79.85 51.54 79.91 51.05L83.85 16.34C84.87 7.36001 85.55 7.36001 93.29 7.42001C94.07 7.43001 94.88 7.43001 95.41 7.43001H95.91L95.9 6.93001L95.7 0.530007L95.69 0.0600067H95.22C93.88 0.0600067 92.78 0.0400067 91.73 0.0300067C81.92 -0.109993 76.84 -0.179993 75.98 11.26L4.41 11.27C3.9 11.27 3.45 11.48 3.12 11.81C2.79 12.14 2.57 12.61 2.54 13.12L0 50.97V50.99V51.07V51.09C0 51.57 0.21 52.01 0.54 52.34C0.86 52.65 1.3 52.86 1.76 52.89H1.78H1.87H1.89H19.05V56.14H4.87C3.04 56.14 1.52 57.58 1.52 59.33V65.71C1.52 67.46 3.03 68.9 4.87 68.9H8.52C8.41 69.57 8.36 70.26 8.36 70.96C8.36 78.13 14.17 83.93 21.33 83.93C28.5 83.93 34.3 78.12 34.3 70.96C34.3 70.26 34.24 69.57 34.14 68.9H42.41V68.89ZM25.87 68.89L25.83 68.81L25.82 68.79L25.79 68.73L25.77 68.68L25.75 68.65L25.71 68.57L25.67 68.49L25.66 68.46L25.63 68.41L25.6 68.36L25.59 68.34L25.54 68.26L25.49 68.19L25.44 68.12L25.4 68.06L25.39 68.05L25.34 67.98L25.33 67.97L25.28 67.91L25.25 67.87L25.22 67.84L25.17 67.78L25.16 67.77L25.09 67.69L25.05 67.64L25.01 67.6L25 67.57L24.94 67.51L24.88 67.45L24.86 67.43L24.82 67.39L24.78 67.35L24.76 67.33L24.7 67.27L24.64 67.22L24.61 67.19L24.57 67.16L24.5 67.1L24.49 67.09L24.42 67.03L24.41 67.02L24.35 66.97L24.31 66.94L24.28 66.92L24.22 66.87L24.21 66.86L24.14 66.81L24.12 66.8L24.07 66.76L24.02 66.73L23.93 66.68L23.92 66.67L23.84 66.62L23.81 66.6L23.76 66.57L23.7 66.54L23.68 66.53L23.6 66.5L23.53 66.46L23.49 66.44H23.48L23.38 66.39L23.36 66.38L23.28 66.34L23.27 66.33L25.87 68.89ZM23.04 66.26L22.95 66.23L22.93 66.22L22.87 66.2L22.82 66.18L22.79 66.17L22.7 66.14L22.61 66.12L22.58 66.11L22.52 66.1L22.46 66.08L22.44 66.07L22.35 66.05H22.34L22.26 66.03L22.22 66.02L22.17 66.01L22.1 66H22.08H21.98H21.96L21.88 65.99L21.83 65.98H21.79L21.71 65.97H21.7L21.61 65.96H21.58H21.47H21.45H21.42H21.33H21.24H21.21H21.19H21.08H21.05L20.96 65.97H20.95L20.87 65.98H20.83L20.78 65.99L20.69 66H20.67L20.58 66.01H20.56L20.49 66.02L20.44 66.03L20.4 66.04L20.32 66.06H20.31L20.22 66.08L20.19 66.09L20.13 66.11L20.07 66.12L20.04 66.13L19.95 66.15L19.86 66.18L19.83 66.19L19.78 66.21L19.72 66.23L19.7 66.24L19.62 66.27H19.61L19.53 66.3L19.49 66.32L19.38 66.36L19.37 66.37L19.29 66.41L19.27 66.42L19.2 66.45L19.15 66.47L19.12 66.49L19.05 66.53H19.04L18.96 66.57L18.94 66.58L18.89 66.61L18.84 66.64L18.81 66.66L18.73 66.71L18.66 66.76L18.63 66.78L18.58 66.81L18.53 66.85L18.51 66.86L18.44 66.91L18.43 66.92L18.37 66.97L18.34 66.99L18.3 67.02L18.24 67.07L18.23 67.08L18.16 67.14L18.15 67.15L18.1 67.19L18.06 67.22L18.03 67.25L17.97 67.3L17.91 67.36L17.86 67.41L17.85 67.42L17.81 67.46L17.79 67.48L17.73 67.54L17.67 67.6L17.61 67.67L17.57 67.72L17.56 67.74L17.5 67.81L17.49 67.82L17.44 67.88L17.41 67.91L17.38 67.95L17.33 68.01L17.32 68.02L17.27 68.09L17.26 68.1L17.22 68.16L17.17 68.23L17.12 68.3L17.07 68.38L17.06 68.4L17.03 68.45L17 68.5L16.98 68.53L16.97 68.55L16.91 68.67L16.9 68.68L16.88 68.71L16.86 68.76L16.83 68.82L16.82 68.84L16.78 68.92C16.49 69.55 16.33 70.25 16.33 70.98C16.33 73.74 18.56 75.97 21.32 75.97C24.08 75.97 26.31 73.74 26.31 70.98C26.31 70.24 26.15 69.55 25.86 68.92L23.04 66.26ZM106.61 68.45L106.57 68.37L106.53 68.29L106.51 68.24L106.49 68.21L106.45 68.14L106.41 68.07L106.39 68.04L106.35 68C106.3 67.93 106.25 67.86 106.2 67.79L106.16 67.74L106.15 67.72L106.1 67.65L106.06 67.6L106.04 67.58L106.01 67.54L106 67.53L105.99 67.52C105.94 67.46 105.89 67.4 105.83 67.34L105.78 67.29L105.77 67.28L105.71 67.22L105.69 67.2L105.65 67.16L105.61 67.12L105.59 67.1L105.53 67.04L105.52 67.03L105.47 66.98L105.43 66.95L105.4 66.93L105.33 66.88L105.27 66.83L105.24 66.81L105.2 66.78L105.14 66.73L105.13 66.72L105.06 66.67L105.04 66.65L105 66.61L104.95 66.57L104.93 66.56L104.86 66.51L104.85 66.5L104.79 66.46L104.75 66.43L104.72 66.41L104.65 66.37L104.58 66.33L104.55 66.31L104.51 66.29L104.44 66.26L104.43 66.25L104.35 66.21L104.33 66.2L104.28 66.17L104.22 66.14L104.2 66.13L104.12 66.1L104.11 66.09L104.04 66.06L103.99 66.04L103.96 66.03L103.88 66L103.8 65.97L103.76 65.96L103.71 65.94L103.64 65.92H103.63L103.55 65.89L103.53 65.88L103.47 65.86L103.41 65.84L103.39 65.83L103.3 65.81H103.29L103.22 65.79L103.17 65.78L103.13 65.77L103.04 65.75L102.95 65.74L102.91 65.73L102.86 65.72L102.78 65.71H102.77L102.68 65.7H102.65L102.59 65.69L102.53 65.68L102.41 65.67H102.4H102.32H102.27H102.14H102.01H101.96H101.88H101.87L101.75 65.68L101.69 65.69L101.63 65.7H101.6L101.51 65.71H101.5L101.42 65.72L101.37 65.73L101.33 65.74L101.24 65.75L101.12 65.77L101.07 65.78L101 65.8H100.99L100.9 65.82L100.88 65.83H100.87L100.77 65.86H100.76L100.74 65.87L100.66 65.9H100.65L100.58 65.92L100.53 65.94L100.49 65.95L100.41 65.98L100.33 66.01L100.3 66.02L100.25 66.04L100.18 66.07L100.17 66.08L100.09 66.11L100.07 66.12L100.01 66.15L99.96 66.18L99.94 66.19L99.86 66.23L99.85 66.24L99.78 66.27L99.74 66.29H99.73L99.63 66.35L99.56 66.39L99.53 66.41L99.49 66.44L99.43 66.48L99.42 66.49L99.35 66.54L99.33 66.55L99.28 66.59L99.23 66.62L99.21 66.64L99.14 66.69L99.13 66.7L99.07 66.75L99 66.79L98.97 66.81L98.91 66.86L98.84 66.91L98.81 66.93L98.77 66.96L98.72 67.01L98.71 67.02L98.65 67.08L98.63 67.1L98.58 67.14L98.54 67.18L98.52 67.2L98.46 67.26L98.45 67.27L98.4 67.32L98.37 67.35L98.34 67.38L98.29 67.44L98.24 67.5L98.22 67.53L98.19 67.57L98.15 67.62L98.14 67.63L98.09 67.7L98.08 67.72L98.04 67.77L98.01 67.82L97.99 67.84L97.94 67.91L97.88 68L97.85 68.04L97.83 68.07L97.79 68.14L97.75 68.21L97.73 68.24L97.7 68.29L97.69 68.3L97.66 68.36L97.62 68.44C97.26 69.13 97.06 69.92 97.06 70.76C97.06 73.55 99.32 75.82 102.12 75.82C104.91 75.82 107.18 73.56 107.18 70.76C107.18 69.93 106.97 69.14 106.61 68.45ZM106.45 24.65L114.7 34.48V38.06H96.44V24.65H106.45ZM34.15 32.91H45.44L43.85 42.92H32.56L34.15 32.91ZM15.82 17.45H27.11L25.52 27.46H14.24L15.82 17.45ZM13.36 32.91H24.65L23.06 42.92H11.77L13.36 32.91ZM57.83 17.45H69.12L67.53 27.46H56.24L57.83 17.45ZM55.36 32.91H66.65L65.06 42.92H53.35L55.36 32.91ZM36.61 17.45H47.9L46.31 27.46H35.03L36.61 17.45ZM55.22 65.96H55.13H55.1H55.08H54.97H54.94L54.85 65.97H54.84L54.76 65.98H54.72L54.67 65.99L54.59 66H54.57L54.48 66.01H54.46L54.39 66.02L54.34 66.03L54.3 66.04L54.22 66.06H54.21L54.12 66.08L54.09 66.09L54.03 66.11L53.97 66.12L53.94 66.13L53.85 66.15L53.76 66.18L53.73 66.19L53.68 66.21L53.62 66.23L53.6 66.24L53.52 66.27H53.51L53.43 66.3L53.39 66.32L53.28 66.36L53.27 66.37L53.19 66.41L53.17 66.42L53.1 66.45L53.06 66.47L53.02 66.49L52.95 66.53H52.94L52.86 66.57L52.84 66.58L52.79 66.61L52.74 66.64L52.71 66.66L52.63 66.71L52.56 66.76L52.53 66.78L52.48 66.81L52.43 66.85L52.41 66.86L52.34 66.91L52.33 66.92L52.27 66.97L52.24 66.99L52.2 67.02L52.14 67.07L52.13 67.08L52.06 67.14L52.05 67.15L52 67.19L51.96 67.22L51.93 67.25L51.87 67.3L51.81 67.36L51.76 67.41L51.75 67.42L51.71 67.46L51.69 67.48L51.63 67.54L51.57 67.6L51.51 67.67L51.47 67.72L51.46 67.74L51.4 67.81L51.39 67.82L51.34 67.88L51.31 67.91L51.28 67.95L51.23 68.01L51.22 68.02L51.17 68.09L51.16 68.1L51.12 68.16L51.07 68.23L51.02 68.3L50.97 68.38L50.96 68.4L50.93 68.45L50.9 68.5L50.89 68.53L50.88 68.55L50.82 68.67L50.81 68.68L50.79 68.71L50.77 68.76L50.74 68.82L50.73 68.84L50.69 68.92C50.4 69.55 50.24 70.25 50.24 70.98C50.24 73.74 52.47 75.97 55.23 75.97C57.99 75.97 60.22 73.74 60.22 70.98C60.22 70.24 60.06 69.55 59.77 68.92L59.73 68.84L59.72 68.82L59.69 68.76L59.67 68.71L59.65 68.68L59.61 68.6L59.57 68.52L59.56 68.49L59.53 68.44L59.5 68.39L59.49 68.37L59.44 68.29L59.39 68.22L59.34 68.15L59.3 68.09L59.29 68.08L59.24 68.01L59.23 68L59.18 67.94L59.15 67.9L59.12 67.87L59.07 67.81L59.06 67.8L59 67.68L58.96 67.63L58.92 67.59L58.9 67.57L58.84 67.51L58.78 67.45L58.76 67.43L58.72 67.39L58.67 67.35L58.65 67.33L58.59 67.27L58.53 67.22L58.5 67.19L58.46 67.16L58.4 67.1L58.39 67.09L58.32 67.03L58.31 67.02L58.25 66.97L58.21 66.94L58.18 66.92L58.12 66.87L58.11 66.86L58.04 66.81L58.02 66.8L57.97 66.76L57.92 66.73L57.83 66.68L57.82 66.67L57.74 66.62L57.71 66.6L57.66 66.57L57.6 66.54L57.58 66.53L57.49 66.49L57.42 66.45L57.38 66.43H57.37L57.27 66.38L57.25 66.37L57.17 66.33L57.16 66.32C57.09 66.29 57.01 66.26 56.94 66.23H56.93L56.85 66.2L56.83 66.19L56.77 66.17L56.72 66.15L56.69 66.14L56.6 66.11L56.51 66.09L56.48 66.08L56.42 66.07L56.36 66.05L56.34 66.04L56.25 66.02H56.24L56.16 66L56.12 65.99L56.07 65.98L56 65.97H55.98L55.87 66H55.85L55.77 65.99L55.72 65.98H55.68L55.6 65.97H55.59L55.5 65.96H55.47H55.36H55.34H55.31H55.22Z" fill="white"/>
</g>
<defs>
<clipPath id="clip0">
<rect width="122.88" height="83.92" fill="white"/>
</clipPath>
</defs>
</svg>
